<svg xmlns="http://www.w3.org/2000/svg" version="1.1" xmlns:xlink="http://www.w3.org/1999/xlink" xmlns:svgjs="http://svgjs.com/svgjs" width="512" height="512" x="0" y="0" viewBox="0 0 64 64" style="enable-background:new 0 0 512 512" xml:space="preserve" class=""><circle r="32" cx="32" cy="32" fill="#ffffff" shape="circle" transform="matrix(0.6,0,0,0.6,12.8,12.8)"></circle><g transform="matrix(0.7,0,0,0.7,9.599999141693118,9.600000572204593)"><g xmlns="http://www.w3.org/2000/svg" id="Layer_62" data-name="Layer 62"><path d="m31.47 19.28a.75.75 0 0 1 1.06 0l17.47 17.49 1.07-1.06-19.07-19.08-19.08 19.08 1.08 1.06z" fill="#00a87c" data-original="#000000" class=""></path><path d="m12.92 45.25 1.08 1.06 17.47-17.49a.75.75 0 0 1 1.06 0l17.47 17.49 1.07-1.06-19.07-19.08z" fill="#00a87c" data-original="#000000" class=""></path><path d="m32 3.25a28.75 28.75 0 1 0 28.75 28.75 28.79 28.79 0 0 0 -28.75-28.75zm-20.67 31.93 20.14-20.18a.75.75 0 0 1 1.06 0l20.14 20.18a.75.75 0 0 1 0 1.06l-2.13 2.12a.71.71 0 0 1 -.53.22.74.74 0 0 1 -.53-.22l-17.48-17.48-17.48 17.48a.75.75 0 0 1 -1.06 0l-2.13-2.12a.75.75 0 0 1 0-1.06zm41.34 10.6-2.13 2.12a.75.75 0 0 1 -.53.22.79.79 0 0 1 -.53-.22l-17.48-17.49-17.48 17.49a.75.75 0 0 1 -1.06 0l-2.13-2.12a.75.75 0 0 1 0-1.06l20.14-20.14a.75.75 0 0 1 1.06 0l20.14 20.14a.75.75 0 0 1 0 1.06z" fill="#00a87c" data-original="#000000" class=""></path></g></g></svg>