<svg xmlns="http://www.w3.org/2000/svg" version="1.1" xmlns:xlink="http://www.w3.org/1999/xlink" xmlns:svgjs="http://svgjs.com/svgjs" width="512" height="512" x="0" y="0" viewBox="0 0 32 32" style="enable-background:new 0 0 512 512" xml:space="preserve" class=""><g><g xmlns="http://www.w3.org/2000/svg" id="Layer_45" data-name="Layer 45"><path d="m29.21 28.29a1 1 0 0 1 0 1.42 1 1 0 0 1 -1.42 0l-13-13a1 1 0 0 1 0-1.42l13-13a1 1 0 1 1 1.42 1.42l-12.3 12.29zm-24.3-12.29 12.3-12.29a1 1 0 1 0 -1.42-1.42l-13 13a1 1 0 0 0 0 1.42l13 13a1 1 0 0 0 1.42 0 1 1 0 0 0 0-1.42z" fill="#ffffff" data-original="#000000" class=""></path></g></g></svg>