<svg xmlns="http://www.w3.org/2000/svg" version="1.1" xmlns:xlink="http://www.w3.org/1999/xlink" xmlns:svgjs="http://svgjs.com/svgjs" width="512" height="512" x="0" y="0" viewBox="0 0 32 32" style="enable-background:new 0 0 512 512" xml:space="preserve" class=""><g transform="matrix(1,0,0,1,0,0)"><g xmlns="http://www.w3.org/2000/svg" id="Layer_47" data-name="Layer 47"><path d="m17.21 16.71-13 13a1 1 0 0 1 -1.42 0 1 1 0 0 1 0-1.42l12.3-12.29-12.3-12.29a1 1 0 0 1 1.42-1.42l13 13a1 1 0 0 1 0 1.42zm12-1.42-13-13a1 1 0 0 0 -1.42 1.42l12.3 12.29-12.3 12.29a1 1 0 0 0 0 1.42 1 1 0 0 0 1.42 0l13-13a1 1 0 0 0 0-1.42z" fill="#ffffff" data-original="#000000" class=""></path></g></g></svg>